<svg width="16" height="16" viewBox="0 0 16 16" fill="none" xmlns="http://www.w3.org/2000/svg">
<path fill-rule="evenodd" clip-rule="evenodd" d="M8 6.99382e-07C3.58172 1.08564e-06 -1.08564e-06 3.58172 -6.99382e-07 8C-3.13124e-07 12.4183 3.58172 16 8 16C12.4183 16 16 12.4183 16 8C16 3.58172 12.4183 3.13124e-07 8 6.99382e-07ZM4.24792 6.0342C2.974 7.03514 2.97399 8.96484 4.24792 9.96579L8.11672 13.0056C8.76813 13.5174 9.71111 13.4042 10.2229 12.7528C10.7348 12.1014 10.6216 11.1584 9.97019 10.6466L6.60177 7.99999L9.97019 5.35338C10.6216 4.84156 10.7348 3.89858 10.2229 3.24717C9.71111 2.59577 8.76813 2.48261 8.11672 2.99443L4.24792 6.0342Z" fill="#FFF8EE"/>
</svg>
