<svg width="16" height="16" viewBox="0 0 16 16" fill="none" xmlns="http://www.w3.org/2000/svg">
<path fill-rule="evenodd" clip-rule="evenodd" d="M8 16C12.4183 16 16 12.4183 16 8C16 3.58172 12.4183 2.17128e-06 8 1.39876e-06C3.58172 6.26248e-07 -6.26248e-07 3.58172 -1.39876e-06 8C-2.17128e-06 12.4183 3.58172 16 8 16ZM11.7521 9.96581C13.026 8.96486 13.026 7.03516 11.7521 6.03421L7.88328 2.99444C7.23187 2.48262 6.28889 2.59578 5.77707 3.24719C5.26525 3.8986 5.37841 4.84158 6.02981 5.3534L9.39822 8.00001L6.02981 10.6466C5.3784 11.1584 5.26525 12.1014 5.77707 12.7528C6.28889 13.4042 7.23187 13.5174 7.88328 13.0056L11.7521 9.96581Z" fill="#FFF8EE"/>
</svg>
