<svg width="22" height="22" viewBox="0 0 22 22" fill="none" xmlns="http://www.w3.org/2000/svg">
<g clip-path="url(#clip0_224_265)">
<path d="M1.12292 7.76144C1.22008 7.64869 7.77333 1.32827 7.77333 1.32827C8.6371 0.480812 9.79962 0.00720324 11.0097 0.00977605C12.2198 0.0123489 13.3803 0.490897 14.2404 1.34202C14.2404 1.34202 20.7799 7.64869 20.8762 7.75869L12.9443 15.6915C12.4202 16.1911 11.724 16.4697 11 16.4697C10.276 16.4697 9.5798 16.1911 9.05575 15.6915L1.12292 7.76144ZM14.2404 16.9914C13.3781 17.8453 12.2136 18.3243 11 18.3243C9.78643 18.3243 8.62191 17.8453 7.75958 16.9914L0.209917 9.44169C0.0781456 9.85956 0.00744298 10.2943 0 10.7324L0 17.4167C0.00145554 18.6318 0.484808 19.7968 1.34403 20.656C2.20326 21.5152 3.3682 21.9986 4.58333 22H17.4167C18.6318 21.9986 19.7967 21.5152 20.656 20.656C21.5152 19.7968 21.9985 18.6318 22 17.4167V10.7324C21.9926 10.2943 21.9219 9.85956 21.7901 9.44169L14.2404 16.9914Z" fill="white"/>
</g>
<defs>
<clipPath id="clip0_224_265">
<rect width="22" height="22" fill="white"/>
</clipPath>
</defs>
</svg>
