<svg width="15" height="15" viewBox="0 0 15 15" fill="none" xmlns="http://www.w3.org/2000/svg">
<g clip-path="url(#clip0_376_32)">
<path d="M1.21458 5.43899C1.27642 5.36724 5.44667 1.34515 5.44667 1.34515C5.99634 0.80586 6.73612 0.504473 7.50617 0.50611C8.27622 0.507747 9.01471 0.812278 9.56208 1.3539C9.56208 1.3539 13.7236 5.36724 13.7848 5.43724L8.73725 10.4854C8.40377 10.8033 7.96072 10.9806 7.5 10.9806C7.03928 10.9806 6.59623 10.8033 6.26275 10.4854L1.21458 5.43899ZM9.56208 11.3126C9.01333 11.856 8.27227 12.1608 7.5 12.1608C6.72773 12.1608 5.98667 11.856 5.43792 11.3126L0.633583 6.50824C0.549729 6.77415 0.504736 7.05079 0.5 7.32957L0.5 11.5832C0.500926 12.3565 0.808514 13.0978 1.35529 13.6446C1.90208 14.1914 2.6434 14.499 3.41667 14.4999H11.5833C12.3566 14.499 13.0979 14.1914 13.6447 13.6446C14.1915 13.0978 14.4991 12.3565 14.5 11.5832V7.32957C14.4953 7.05079 14.4503 6.77415 14.3664 6.50824L9.56208 11.3126Z" fill="#FFF8EE"/>
</g>
<defs>
<clipPath id="clip0_376_32">
<rect width="14" height="14" fill="white" transform="translate(0.5 0.5)"/>
</clipPath>
</defs>
</svg>
