<svg width="18" height="17" viewBox="0 0 18 17" fill="none" xmlns="http://www.w3.org/2000/svg">
<path d="M16 8.5C16 12.366 12.866 15.5 9 15.5C5.13401 15.5 2 12.366 2 8.5C2 6.59269 2.76281 4.86355 4 3.60102C5.27052 2.30447 7.04131 1.5 9 1.5C10.9587 1.5 12.7295 2.30447 14 3.60102C15.2372 4.86355 16 6.59269 16 8.5Z" stroke="#FFF8EE" stroke-opacity="0.3" stroke-width="2.5"/>
<path d="M4 3.5C2.76281 4.76254 2 6.49168 2 8.39898C2 12.265 5.13401 15.399 9 15.399C12.866 15.399 16 12.265 16 8.39898C16 6.49168 15.2372 4.76254 14 3.5" stroke="#FFF8EE" stroke-width="2.5" stroke-linecap="round"/>
</svg>
